<svg xmlns="http://www.w3.org/2000/svg"  xmlns:xlink="http://www.w3.org/1999/xlink" fill="#6a7430" version="1.1" x="0px" y="0px" viewBox="0 0 100 125" style="enable-background:new 0 0 100 100;" xml:space="preserve"><path d="M68.546,51.781c1.584-1.477,1.79-3.809,0.662-5.294c-0.869-1.143-2.435-1.662-3.971-1.324  c1.228-2.425,0.338-5.003-1.324-5.767c-1.11-0.511-2.59-0.223-3.593,0.662c-1.054,0.93-1.464,2.414-1.04,3.782  c-0.552-1.276-1.571-3.209-3.403-5.105c-1.694-1.752-3.432-2.801-4.633-3.403c-0.085-0.629-0.264-1.457-0.662-2.364  c-0.267-0.609-0.571-1.113-0.851-1.513c0.104-0.806,0.154-1.841,0-3.025c-0.088-0.676-0.226-1.278-0.378-1.796  c0.128-1.283,0.562-3.834,2.364-6.334c0.443-0.615,3.61-4.864,8.981-5.2c1.5-0.094,4.554-0.284,6.712,1.985  c1.687,1.775,2.181,4.374,1.607,6.523c-0.055,0.207-0.695,2.474-2.742,3.782c-0.51,0.326-1.497,0.956-2.269,0.567  c-0.734-0.37-0.845-1.445-0.851-1.513c-0.11-1.224,0.89-1.708,0.662-2.458c-0.239-0.786-1.638-1.245-2.742-1.04  c-1.748,0.324-2.444,2.251-2.553,2.553c-0.07,0.194-0.772,2.234,0.378,3.782c1.38,1.858,4.251,1.424,4.916,1.324  c3.601-0.544,5.546-3.802,5.956-4.538c1.622-2.912,1.321-5.935,0.756-7.752c-0.259-0.834-0.627-1.965-1.702-2.931  c-1.324-1.19-2.885-1.378-3.498-1.418c0.652-0.171,2.225-0.682,3.404-2.174c0.412-0.521,1.587-2.011,1.134-3.309  c-0.586-1.68-3.507-1.923-4.254-1.985c-4.074-0.34-7.335,2.327-8.603,3.498c-0.096-2.308-1.258-4.245-2.931-4.822  c-2.439-0.841-4.78,1.619-5.578,2.458c-2.403,2.525-2.551,5.746-2.553,6.807c-0.365-0.297-1.877-1.459-3.687-1.135  c-2.97,0.533-3.747,4.535-3.782,4.727c-0.494,2.753,1.017,5.022,1.891,6.334c1.332,1.999,2.361,2.341,4.254,4.254  c1.297,1.311,3.021,3.38,4.538,6.523c-0.499-0.111-9.056-1.869-14.748,4.16c-3.01,3.187-5.348,8.687-3.404,13.708  c0.219,0.566,2.243,5.559,6.996,6.429c2.088,0.382,5.819,0.172,7.374-2.553c0.999-1.75,1.118-4.57-0.662-6.24  c-1.631-1.53-4.439-1.703-5.767-0.473c-0.983,0.911-1.094,2.534-1.135,3.12c-0.116,1.696,0.516,2.635,0,3.12  c-0.461,0.432-1.504,0.191-2.174-0.189c-2.409-1.364-2.216-5.759-2.174-6.712c0.045-1.023,0.227-5.164,3.498-8.414  c3.548-3.526,9.097-4.381,13.614-2.553c3.842,1.555,6.502,4.874,7.469,8.32c0.836,2.982,0.261,5.551-0.189,7.563  c-0.436,1.946-0.95,4.246-2.836,6.429c-2.191,2.535-4.963,3.443-6.334,3.782c-0.062-0.205-0.651-2.043-2.269-2.553  c-1.711-0.539-3.956,0.601-4.822,2.931c-0.243-0.281-1.602-1.798-3.498-1.702c-2.352,0.12-3.586,2.623-3.971,3.404  c-1.495,3.031-0.282,6.133,0,6.807c-0.318-0.08-2.736-0.654-4.254,0.756c-1.766,1.641-1.021,4.763,0,6.429  c0.896,1.462,2.202,2.125,4.349,3.214c1.798,0.912,3.405,1.415,4.538,1.702c0.657,1.413,2.632,5.155,6.996,7.469  c1.367,0.725,4.972,2.635,9.454,1.607c2.954-0.677,4.928-2.318,5.862-3.214c-0.008-0.066-0.102-0.784-0.756-1.135  c-0.525-0.281-1.039-0.125-1.135-0.095c-0.844,0.68-3.212,2.405-6.712,2.647c-0.825,0.057-3.36,0.146-6.145-1.229  c-0.802-0.396-4.649-2.295-5.956-6.523c-0.762-2.465-0.293-4.532,0.095-6.24c0.499-2.202,1.633-7.2,6.334-10.021  c0.495-0.297,6.414-3.721,11.818-0.662c0.201,0.114,4.809,2.818,5.105,7.658c0.03,0.495,0.197,4.041-2.174,5.862  c-1.216,0.933-3.069,1.391-3.687,0.756c-0.202-0.208-0.174-0.432-0.284-2.364c-0.087-1.526-0.123-1.714-0.284-1.891  c-0.614-0.679-2.395-0.493-3.403,0.378c-1.51,1.304-1.47,4.304-0.095,6.051c1.675,2.126,4.99,1.963,6.996,1.134  c4.172-1.722,4.679-7.144,4.727-7.752c0.395-5.033-3.195-8.519-4.254-9.454c-3.262-2.878-7.024-3.17-8.225-3.214  c0.774-0.495,1.866-1.163,3.214-1.891c1.101-0.594,1.993-1.072,3.12-1.513c1.438-0.563,2.038-0.588,3.782-1.04  c3.259-0.844,4.888-1.266,6.145-2.458c0.47-0.446,2.295-2.175,1.796-4.16C70.673,52.638,68.835,51.893,68.546,51.781z   M59.376,10.372c1.482-1.055,3.25-2.28,5.578-2.269c0.59,0.003,2.035,0.009,2.458,0.851c0.385,0.766-0.301,1.779-0.378,1.891  c-0.291,0.418-0.939,1.101-3.687,1.607c-2.134,0.393-2.713,0.16-4.349,0.473c-1.58,0.301-2.829,0.86-3.687,1.324  C56.807,12.361,58.317,11.127,59.376,10.372z M43.682,25.594c-1.7-1.719-2.693-2.748-3.214-4.443  c-0.226-0.736-0.88-2.863,0.284-4.349c0.551-0.704,1.618-1.401,2.553-1.135c0.548,0.156,0.998,0.628,1.702,2.364  c0.922,2.272,1.241,4.152,1.324,4.633c0.238,1.392,0.609,3.479,1.135,6.145C45.77,27.6,44.518,26.44,43.682,25.594z M47.842,21.623  c-0.343-1.935-0.357-3.589-0.284-4.822c0.075-1.262,0.213-3.284,1.229-5.578c0.728-1.644,1.434-3.239,2.931-3.593  c0.92-0.217,2.128,0.037,2.742,0.851c0.775,1.028,0.256,2.493,0,3.214c-0.466,1.316-1.02,1.458-2.647,3.687  c-0.459,0.629-0.968,1.428-1.985,3.025C49.023,19.671,48.354,20.766,47.842,21.623z M33.661,82.034  c-1.306-0.885-3.054-2.07-3.12-3.876c-0.035-0.952,0.384-2.462,1.607-2.836c0.837-0.256,1.824,0.089,2.553,0.851  c0.405,1.152,0.928,2.43,1.607,3.782c0.772,1.538,1.59,2.861,2.364,3.971C36.237,83.584,34.572,82.652,33.661,82.034z   M39.238,72.202c-0.325,1.059-0.736,2.598-1.04,4.538c-0.576-0.459-1.675-1.462-2.364-3.12c-0.284-0.684-0.935-2.529-0.378-4.727  c0.35-1.383,1.416-3.844,2.742-3.782c0.938,0.044,1.72,1.336,1.985,2.364C40.549,68.888,39.954,69.869,39.238,72.202z   M46.613,65.868c-0.266,0.844-1.031,1.081-2.174,1.891c-0.697,0.494-1.661,1.291-2.647,2.553c0.203-1.281,0.453-2.34,0.662-3.12  c0.573-2.14,0.955-2.621,1.324-2.931c0.115-0.097,1.28-1.051,2.174-0.567C46.642,64.067,46.847,65.123,46.613,65.868z   M60.416,44.407c0.015-0.416,0.042-1.377,0.662-2.269c0.077-0.11,1.033-1.455,1.985-1.229c0.826,0.196,1.213,1.471,1.229,2.363  c0.018,1.046-0.47,1.77-1.702,3.498c-1.104,1.549-2.045,2.837-2.742,3.782C60.204,47.865,60.362,45.921,60.416,44.407z   M60.132,53.483c1.095-2.499,2.366-4.011,2.742-4.443c1.298-1.495,2.161-2.489,3.403-2.458c0.939,0.023,2.013,0.629,2.269,1.513  c0.309,1.066-0.688,2.137-1.513,3.025c-0.975,1.049-1.876,1.564-3.593,2.553c-0.72,0.414-2.141,1.234-4.254,2.458  C59.374,55.459,59.67,54.538,60.132,53.483z M67.506,57.265c-1.15,1.09-2.411,1.474-4.16,1.985  c-1.517,0.443-1.949,0.374-3.971,0.945c-1.004,0.284-1.819,0.561-2.364,0.756c0.932-1.656,1.968-2.68,2.742-3.309  c1.668-1.356,2.169-0.916,4.443-2.553c1.554-1.119,2.177-1.941,3.214-1.796c0.641,0.089,1.306,0.528,1.513,1.134  C69.308,55.557,67.955,56.839,67.506,57.265z"/></svg>